<svg width="14" height="15" viewBox="0 0 14 15" fill="none" xmlns="http://www.w3.org/2000/svg">
<path id="Community Icon" d="M12.0192 9.43669L8.42693 11.4779C8.12218 11.1125 7.69006 10.8719 7.21478 10.8029C6.7395 10.7339 6.25513 10.8414 5.85608 11.1046C5.45704 11.3678 5.17191 11.7678 5.05628 12.2266C4.94066 12.6854 5.00282 13.17 5.23064 13.5862C5.45847 14.0023 5.83564 14.3201 6.28863 14.4775C6.74163 14.635 7.23798 14.6208 7.68094 14.4378C8.1239 14.2548 8.48172 13.9161 8.68466 13.4877C8.8876 13.0592 8.92111 12.5718 8.77866 12.1204L12.3903 10.0689L12.0192 9.43669ZM2.79693 2.30177C2.5662 2.16802 2.30878 2.08427 2.04235 2.05768C1.77591 2.03109 1.50679 2.06157 1.25347 2.14702C1.00014 2.23248 0.768628 2.37087 0.574829 2.55271C0.38103 2.73454 0.229543 2.95549 0.130777 3.20039C0.0320104 3.44529 -0.0116927 3.70832 0.0026703 3.97141C0.0170333 4.23451 0.089122 4.49142 0.213983 4.7245C0.338843 4.95758 0.513515 5.1613 0.725996 5.32167C0.938477 5.48203 1.18373 5.59523 1.4449 5.6535V9.75281H2.18696V5.66664C2.24113 5.65715 2.29604 5.65934 2.34947 5.64547C2.7039 5.55206 3.02223 5.35734 3.26417 5.08593C3.50612 4.81452 3.66083 4.47862 3.70872 4.12071C3.75662 3.76279 3.69556 3.39894 3.53326 3.07517C3.37096 2.7514 3.11471 2.48225 2.79693 2.30177ZM11.2237 2.30177C11.0689 2.39288 10.9286 2.50605 10.8074 2.6376L7.19585 0.586121L6.82482 1.21763L10.4179 3.25816C10.2721 3.65998 10.2748 4.0995 10.4256 4.49952C10.5765 4.89955 10.8657 5.23452 11.2426 5.4456C11.6195 5.65669 12.0599 5.73039 12.4865 5.65378C12.9131 5.57717 13.2987 5.35513 13.5754 5.02667C13.8522 4.6982 14.0025 4.2843 14 3.85764C13.9974 3.43099 13.8422 3.01886 13.5615 2.69363C13.2808 2.36839 12.8926 2.15084 12.4651 2.07918C12.0376 2.00752 11.5981 2.08633 11.2237 2.30177ZM5.15519 5.95939V7.64584C5.15532 7.70979 5.17253 7.77259 5.20509 7.82794C5.23764 7.88329 5.28441 7.92925 5.3407 7.96123L6.82482 8.80445C6.88115 8.83671 6.94516 8.8537 7.01034 8.8537C7.07551 8.8537 7.13952 8.83671 7.19585 8.80445L8.67997 7.96123C8.73637 7.92919 8.78321 7.88311 8.81577 7.82762C8.84834 7.77213 8.86548 7.70919 8.86548 7.64511V5.96012C8.86548 5.89605 8.84834 5.8331 8.81577 5.77761C8.78321 5.72212 8.73637 5.67604 8.67997 5.64401L7.19585 4.80078C7.1395 4.7686 7.0755 4.75165 7.01034 4.75165C6.94518 4.75165 6.88118 4.7686 6.82482 4.80078L5.3407 5.64401C5.2843 5.67604 5.23746 5.72212 5.2049 5.77761C5.17234 5.8331 5.15519 5.89532 5.15519 5.95939Z" fill="#A49BFF"/>
</svg>
