<svg width="25" height="26" viewBox="0 0 25 26" fill="none" xmlns="http://www.w3.org/2000/svg">
<g clip-path="url(#clip0_623_9121)">
<path d="M12.5 25.0861C19.4036 25.0861 25 19.4896 25 12.5861C25 5.6825 19.4036 0.0860596 12.5 0.0860596C5.59644 0.0860596 0 5.6825 0 12.5861C0 19.4896 5.59644 25.0861 12.5 25.0861Z" fill="#40484B" fill-opacity="0.2"/>
<path d="M16.5145 9.33606C15.203 8.41798 13.957 8.3524 13.7603 8.3524L13.6292 8.48355C15.1374 8.87702 15.9899 9.59836 16.0555 9.66394C13.6947 8.48355 11.0717 8.41798 8.71087 9.33606C8.38298 9.46722 8.18625 9.59836 8.12067 9.59836C8.25183 9.53279 9.03875 8.81143 10.6781 8.41798L10.547 8.28682C10.547 8.28682 9.23548 8.22125 7.79279 9.27048C7.79279 9.27048 6.3501 11.6968 6.3501 14.779C6.3501 14.779 7.2026 16.1561 9.36664 16.2217C9.36664 16.2217 9.69449 15.8282 10.0224 15.4347C8.9076 15.1068 8.38298 14.3855 8.31741 14.3199L8.71087 14.5166C9.89126 14.9757 11.1372 15.6315 13.4324 15.238C13.8915 15.1724 14.4161 15.0413 14.8751 14.8445C15.203 14.6479 15.5965 14.5166 15.9899 14.2543C15.9244 14.3199 15.3997 15.0413 14.2194 15.3691C14.4817 15.7626 14.8751 16.1561 14.8751 16.1561C17.1047 16.0905 17.9572 14.7134 17.9572 14.8445C17.9572 11.828 16.5145 9.33606 16.5145 9.33606ZM10.3503 13.7954C9.82564 13.7954 9.36664 13.3363 9.36664 12.7461C9.36664 12.1559 9.82564 11.6968 10.3503 11.6968C10.8749 11.6968 11.334 12.2215 11.334 12.7461C11.334 13.3363 10.8749 13.7954 10.3503 13.7954ZM13.957 13.7954C13.4324 13.7954 12.9733 13.3363 12.9733 12.7461C12.9733 12.1559 13.4324 11.6968 13.957 11.6968C14.5472 11.6968 15.0063 12.2215 15.0063 12.7461C15.0063 13.3363 14.5472 13.7954 13.957 13.7954Z" fill="white"/>
</g>
<defs>
<clipPath id="clip0_623_9121">
<rect width="25" height="25" fill="white" transform="translate(0 0.0860596)"/>
</clipPath>
</defs>
</svg>
