<svg width="26" height="26" viewBox="0 0 26 26" fill="none" xmlns="http://www.w3.org/2000/svg">
<g id="Instagram" clip-path="url(#clip0_1168_5811)">
<path id="Social_Bg" d="M13.48 25.624C20.3835 25.624 25.98 20.0276 25.98 13.124C25.98 6.22046 20.3835 0.624023 13.48 0.624023C6.57642 0.624023 0.97998 6.22046 0.97998 13.124C0.97998 20.0276 6.57642 25.624 13.48 25.624Z" fill="#40484B" fill-opacity="0.2"/>
<path id="Vector" fill-rule="evenodd" clip-rule="evenodd" d="M11.4909 8.28772C10.3712 8.28772 9.4635 9.19541 9.4635 10.3151V15.3333C9.4635 16.453 10.3712 17.3607 11.4909 17.3607H16.5091C17.6288 17.3607 18.5365 16.453 18.5365 15.3333V10.3151C18.5365 9.19541 17.6288 8.28772 16.5091 8.28772H11.4909ZM8.5 10.3151C8.5 8.66328 9.83906 7.32422 11.4909 7.32422H16.5091C18.1609 7.32422 19.5 8.66328 19.5 10.3151V15.3333C19.5 16.9852 18.1609 18.3242 16.5091 18.3242H11.4909C9.83906 18.3242 8.5 16.9852 8.5 15.3333V10.3151ZM16.2783 10.0642C16.2783 9.79812 16.494 9.58243 16.76 9.58243H16.7651C17.0311 9.58243 17.2468 9.79812 17.2468 10.0642C17.2468 10.3302 17.0311 10.5459 16.7651 10.5459H16.76C16.494 10.5459 16.2783 10.3302 16.2783 10.0642ZM14.2455 11.2935C13.9281 11.2464 13.6039 11.3006 13.3191 11.4484C13.0343 11.5962 12.8033 11.83 12.659 12.1166C12.5148 12.4033 12.4646 12.7281 12.5155 13.0449C12.5665 13.3617 12.7161 13.6543 12.943 13.8812C13.1699 14.1081 13.4625 14.2577 13.7793 14.3087C14.0962 14.3597 14.421 14.3094 14.7076 14.1652C14.9942 14.0209 15.228 13.7899 15.3758 13.5051C15.5236 13.2203 15.5778 12.8961 15.5308 12.5787C15.4827 12.255 15.3319 11.9552 15.1004 11.7238C14.869 11.4923 14.5693 11.3415 14.2455 11.2935ZM12.8753 10.5932C13.34 10.352 13.8689 10.2636 14.3868 10.3404C14.9151 10.4187 15.4041 10.6649 15.7817 11.0425C16.1594 11.4201 16.4055 11.9092 16.4838 12.4374C16.5606 12.9553 16.4722 13.4842 16.2311 13.9489C15.9899 14.4136 15.6084 14.7904 15.1408 15.0258C14.6731 15.2612 14.1432 15.3431 13.6263 15.2599C13.1094 15.1768 12.6319 14.9327 12.2617 14.5625C11.8915 14.1923 11.6474 13.7148 11.5643 13.1979C11.4811 12.6811 11.563 12.1511 11.7984 11.6835C12.0338 11.2158 12.4106 10.8343 12.8753 10.5932Z" fill="white"/>
</g>
<defs>
<clipPath id="clip0_1168_5811">
<rect width="25" height="25" fill="white" transform="translate(0.97998 0.624023)"/>
</clipPath>
</defs>
</svg>
