<svg width="26" height="26" viewBox="0 0 26 26" fill="none" xmlns="http://www.w3.org/2000/svg">
<g id="Linkedin" clip-path="url(#clip0_1168_5821)">
<path id="Social_Bg" d="M13.48 25.624C20.3835 25.624 25.98 20.0276 25.98 13.124C25.98 6.22046 20.3835 0.624023 13.48 0.624023C6.57642 0.624023 0.97998 6.22046 0.97998 13.124C0.97998 20.0276 6.57642 25.624 13.48 25.624Z" fill="#40484B" fill-opacity="0.2"/>
<path id="Vector" d="M10.3085 8.97905C10.3083 9.28517 10.1866 9.5787 9.97002 9.79505C9.75345 10.0114 9.4598 10.1329 9.15367 10.1327C8.84755 10.1326 8.55402 10.0108 8.33766 9.79424C8.12131 9.57767 7.99985 9.28402 8 8.97789C8.00015 8.67177 8.12191 8.37824 8.33848 8.16188C8.55505 7.94553 8.8487 7.82407 9.15483 7.82422C9.46095 7.82437 9.75448 7.94613 9.97084 8.1627C10.1872 8.37927 10.3087 8.67292 10.3085 8.97905ZM10.3431 10.9874H8.03463V18.213H10.3431V10.9874ZM13.9906 10.9874H11.6936V18.213H13.9675V14.4213C13.9675 12.3091 16.7204 12.1128 16.7204 14.4213V18.213H19V13.6364C19 10.0756 14.9255 10.2083 13.9675 11.957L13.9906 10.9874Z" fill="white"/>
</g>
<defs>
<clipPath id="clip0_1168_5821">
<rect width="25" height="25" fill="white" transform="translate(0.97998 0.624023)"/>
</clipPath>
</defs>
</svg>
