<svg width="26" height="26" viewBox="0 0 26 26" fill="none" xmlns="http://www.w3.org/2000/svg">
<g id="Mediume" clip-path="url(#clip0_1168_5816)">
<path id="Social_Bg" d="M13.48 25.624C20.3835 25.624 25.98 20.0276 25.98 13.124C25.98 6.22046 20.3835 0.624023 13.48 0.624023C6.57642 0.624023 0.97998 6.22046 0.97998 13.124C0.97998 20.0276 6.57642 25.624 13.48 25.624Z" fill="#40484B" fill-opacity="0.2"/>
<path id="Vector" fill-rule="evenodd" clip-rule="evenodd" d="M8.21151 10.6646C8.2188 10.5867 8.20763 10.508 8.17902 10.436C8.15041 10.364 8.1053 10.3009 8.04792 10.2528L6.83459 8.8352V8.62402H10.6024L13.5166 14.8147L16.0765 8.62402H19.6699V8.8352L18.6321 9.80008C18.5892 9.82973 18.5553 9.8723 18.5347 9.9225C18.5141 9.9727 18.5077 10.0283 18.5162 10.0824V17.1668C18.5077 17.2209 18.5141 17.2765 18.5347 17.3267C18.5553 17.3769 18.5892 17.4195 18.6321 17.4491L19.645 18.4128V18.624H14.5468V18.414L15.5977 17.4246C15.7006 17.3255 15.7006 17.2963 15.7006 17.1434V11.4172L12.781 18.6019H12.3867L8.98826 11.4172V16.2322C8.97516 16.3338 8.98551 16.4373 9.01839 16.5336C9.05126 16.6298 9.10566 16.7159 9.17676 16.7841L10.5418 18.3895V18.6019H6.66992V18.3895L8.03492 16.7841C8.10556 16.7159 8.15886 16.6294 8.18976 16.5329C8.22067 16.4363 8.22815 16.3328 8.21151 16.2322V10.6646Z" fill="white"/>
</g>
<defs>
<clipPath id="clip0_1168_5816">
<rect width="25" height="25" fill="white" transform="translate(0.97998 0.624023)"/>
</clipPath>
</defs>
</svg>
