<svg width="25" height="26" viewBox="0 0 25 26" fill="none" xmlns="http://www.w3.org/2000/svg">
<g clip-path="url(#clip0_623_9122)">
<path d="M12.5 25.0861C19.4036 25.0861 25 19.4896 25 12.5861C25 5.6825 19.4036 0.0860596 12.5 0.0860596C5.59644 0.0860596 0 5.6825 0 12.5861C0 19.4896 5.59644 25.0861 12.5 25.0861Z" fill="#40484B" fill-opacity="0.2"/>
<path d="M17.5694 9.15209L15.8189 17.3913C15.6868 17.9728 15.3424 18.1176 14.853 17.8436L12.1858 15.882L10.8988 17.1174C10.7564 17.2595 10.6373 17.3784 10.3628 17.3784L10.5544 14.6673L15.4978 10.2091C15.7127 10.0179 15.4512 9.91192 15.1637 10.1032L9.05247 13.9437L6.42152 13.1218C5.84924 12.9435 5.83888 12.5507 6.54064 12.2767L16.8314 8.31989C17.3078 8.14157 17.7248 8.42586 17.5694 9.15209Z" fill="white"/>
</g>
<defs>
<clipPath id="clip0_623_9122">
<rect width="25" height="25" fill="white" transform="translate(0 0.0860596)"/>
</clipPath>
</defs>
</svg>
