<svg width="25" height="26" viewBox="0 0 25 26" fill="none" xmlns="http://www.w3.org/2000/svg">
<g clip-path="url(#clip0_623_9120)">
<path d="M12.5 25.0861C19.4036 25.0861 25 19.4896 25 12.5861C25 5.6825 19.4036 0.0860596 12.5 0.0860596C5.59644 0.0860596 0 5.6825 0 12.5861C0 19.4896 5.59644 25.0861 12.5 25.0861Z" fill="#40484B" fill-opacity="0.2"/>
<path d="M7.3101 7.57568L11.3372 12.9534L7.28467 17.3257H8.19673L11.7447 13.4977L14.6114 17.3257H17.7152L13.4615 11.6455L17.2336 7.57568H16.3215L13.054 11.1012L10.4139 7.57568H7.3101ZM8.65136 8.24665H10.0772L16.3737 16.6546H14.9478L8.65136 8.24665Z" fill="white"/>
</g>
<defs>
<clipPath id="clip0_623_9120">
<rect width="25" height="25" fill="white" transform="translate(0 0.0860596)"/>
</clipPath>
</defs>
</svg>
