<svg width="26" height="26" viewBox="0 0 26 26" fill="none" xmlns="http://www.w3.org/2000/svg">
<g id="Youtube" clip-path="url(#clip0_1168_5826)">
<path id="Social_Bg" d="M13.48 25.624C20.3835 25.624 25.98 20.0276 25.98 13.124C25.98 6.22046 20.3835 0.624023 13.48 0.624023C6.57642 0.624023 0.97998 6.22046 0.97998 13.124C0.97998 20.0276 6.57642 25.624 13.48 25.624Z" fill="#40484B" fill-opacity="0.2"/>
<path id="Vector" d="M18.9975 11.5483C19.0222 10.8331 18.8658 10.1232 18.5428 9.48464C18.3236 9.22261 18.0194 9.04578 17.6833 8.98496C16.2929 8.8588 14.8968 8.80709 13.5009 8.83006C12.1101 8.80605 10.719 8.85609 9.33357 8.97996C9.05965 9.02979 8.80616 9.15827 8.60403 9.34973C8.15431 9.76447 8.10434 10.474 8.05437 11.0736C7.98188 12.1517 7.98188 13.2335 8.05437 14.3116C8.06883 14.6491 8.11908 14.9841 8.20428 15.311C8.26453 15.5633 8.38643 15.7968 8.55906 15.9905C8.76256 16.1921 9.02196 16.3279 9.30359 16.3803C10.3809 16.5133 11.4663 16.5684 12.5515 16.5452C14.3004 16.5702 15.8345 16.5452 17.6483 16.4053C17.9369 16.3561 18.2036 16.2202 18.4128 16.0155C18.5527 15.8756 18.6572 15.7043 18.7176 15.5158C18.8963 14.9675 18.9841 14.3936 18.9775 13.8169C18.9975 13.5371 18.9975 11.8482 18.9975 11.5483ZM12.3716 14.1167V11.0237L15.3298 12.5777C14.5003 13.0374 13.406 13.5571 12.3716 14.1167Z" fill="white"/>
</g>
<defs>
<clipPath id="clip0_1168_5826">
<rect width="25" height="25" fill="white" transform="translate(0.97998 0.624023)"/>
</clipPath>
</defs>
</svg>
