<svg width="144" height="42" viewBox="0 0 144 42" fill="none" xmlns="http://www.w3.org/2000/svg">
<circle cx="20.6264" cy="20.6263" r="6.87544" fill="#D2CDFF"/>
<path d="M41.1722 18.4149H31.8495C30.8485 13.1294 26.1938 9.13158 20.6027 9.13158C14.2813 9.13158 9.15674 14.242 9.15674 20.5461C9.15674 20.852 9.16882 21.1552 9.19251 21.4551V37.7176C3.65025 34.0262 0 27.7313 0 20.5861C0 9.21672 9.24211 0 20.6428 0C31.3082 0 40.0845 8.06612 41.1722 18.4149Z" fill="#4836FF"/>
<path d="M41.1452 22.9985C39.9475 33.2312 31.225 41.1722 20.6426 41.1722C18.24 41.1722 15.9332 40.7629 13.7886 40.0103V29.7184C15.6923 31.1272 18.0498 31.9605 20.6025 31.9605C26.0797 31.9605 30.6583 28.1239 31.7836 22.9985H41.1452Z" fill="#A49BFF"/>
<path d="M51.0289 27.5861V14.4952H56.1937C57.1866 14.4952 58.0324 14.6848 58.7313 15.0641C59.4302 15.4391 59.9628 15.9611 60.3293 16.6302C60.7001 17.2949 60.8854 18.062 60.8854 18.9313C60.8854 19.8006 60.6979 20.5677 60.3229 21.2324C59.9479 21.8972 59.4046 22.415 58.693 22.7857C57.9856 23.1564 57.129 23.3418 56.1234 23.3418H52.8315V21.1238H55.6759C56.2086 21.1238 56.6475 21.0321 56.9927 20.8489C57.3421 20.6614 57.6021 20.4036 57.7725 20.0755C57.9472 19.7431 58.0346 19.3617 58.0346 18.9313C58.0346 18.4966 57.9472 18.1174 57.7725 17.7935C57.6021 17.4654 57.3421 17.2118 56.9927 17.0329C56.6432 16.8496 56.2001 16.758 55.6631 16.758H53.7967V27.5861H51.0289ZM66.9099 27.7779C65.917 27.7779 65.0584 27.5669 64.3339 27.1451C63.6138 26.7189 63.0577 26.1266 62.6656 25.3681C62.2736 24.6053 62.0775 23.7211 62.0775 22.7154C62.0775 21.7012 62.2736 20.8148 62.6656 20.0563C63.0577 19.2935 63.6138 18.7012 64.3339 18.2793C65.0584 17.8532 65.917 17.6401 66.9099 17.6401C67.9028 17.6401 68.7594 17.8532 69.4795 18.2793C70.204 18.7012 70.7622 19.2935 71.1543 20.0563C71.5463 20.8148 71.7423 21.7012 71.7423 22.7154C71.7423 23.7211 71.5463 24.6053 71.1543 25.3681C70.7622 26.1266 70.204 26.7189 69.4795 27.1451C68.7594 27.5669 67.9028 27.7779 66.9099 27.7779ZM66.9227 25.6685C67.3744 25.6685 67.7516 25.5407 68.0541 25.285C68.3567 25.025 68.5847 24.6713 68.7381 24.2239C68.8957 23.7765 68.9746 23.2672 68.9746 22.6962C68.9746 22.1252 68.8957 21.616 68.7381 21.1685C68.5847 20.7211 68.3567 20.3674 68.0541 20.1074C67.7516 19.8475 67.3744 19.7175 66.9227 19.7175C66.4668 19.7175 66.0832 19.8475 65.7722 20.1074C65.4653 20.3674 65.2331 20.7211 65.0754 21.1685C64.922 21.616 64.8453 22.1252 64.8453 22.6962C64.8453 23.2672 64.922 23.7765 65.0754 24.2239C65.2331 24.6713 65.4653 25.025 65.7722 25.285C66.0832 25.5407 66.4668 25.6685 66.9227 25.6685ZM76.2359 14.4952V27.5861H73.5129V14.4952H76.2359ZM80.0983 31.2679C79.7532 31.2679 79.4293 31.2402 79.1267 31.1848C78.8284 31.1337 78.5813 31.0677 78.3853 30.9867L78.9989 28.954C79.3185 29.052 79.6061 29.1053 79.8618 29.1138C80.1218 29.1223 80.3455 29.0627 80.533 28.9348C80.7247 28.807 80.8803 28.5897 80.9996 28.2829L81.1594 27.8674L77.6374 17.7679H80.501L82.5337 24.9782H82.636L84.6878 17.7679H87.5706L83.7546 28.6472C83.5713 29.1756 83.322 29.6358 83.0067 30.0279C82.6956 30.4242 82.3014 30.7289 81.8242 30.9419C81.3469 31.1593 80.7716 31.2679 80.0983 31.2679ZM93.0838 27.7779C92.0781 27.7779 91.213 27.5648 90.4886 27.1387C89.7684 26.7083 89.2144 26.1117 88.8267 25.3489C88.4431 24.5861 88.2514 23.7083 88.2514 22.7154C88.2514 21.7097 88.4453 20.8276 88.8331 20.0691C89.2251 19.3063 89.7812 18.7118 90.5014 18.2857C91.2215 17.8553 92.0781 17.6401 93.071 17.6401C93.9275 17.6401 94.6775 17.7956 95.321 18.1067C95.9644 18.4178 96.4737 18.8546 96.8487 19.4171C97.2237 19.9796 97.4304 20.6401 97.4687 21.3986H94.8991C94.8267 20.9086 94.6349 20.5144 94.3238 20.2161C94.017 19.9135 93.6143 19.7623 93.1157 19.7623C92.6938 19.7623 92.3252 19.8773 92.0099 20.1074C91.6988 20.3333 91.4559 20.6635 91.2812 21.0982C91.1065 21.5329 91.0191 22.0591 91.0191 22.677C91.0191 23.3034 91.1044 23.8361 91.2748 24.275C91.4495 24.714 91.6946 25.0485 92.0099 25.2786C92.3252 25.5087 92.6938 25.6238 93.1157 25.6238C93.4268 25.6238 93.7059 25.5598 93.9531 25.432C94.2045 25.3042 94.4112 25.1188 94.5731 24.8759C94.7393 24.6287 94.848 24.3326 94.8991 23.9874H97.4687C97.4261 24.7374 97.2215 25.3979 96.8551 25.9689C96.4929 26.5357 95.9921 26.9789 95.3529 27.2985C94.7137 27.6181 93.9573 27.7779 93.0838 27.7779ZM99.2121 27.5861V17.7679H101.852V19.481H101.954C102.133 18.8716 102.434 18.4114 102.856 18.1003C103.277 17.785 103.763 17.6273 104.313 17.6273C104.449 17.6273 104.596 17.6358 104.754 17.6529C104.912 17.6699 105.05 17.6934 105.17 17.7232V20.1394C105.042 20.101 104.865 20.0669 104.639 20.0371C104.413 20.0073 104.206 19.9924 104.019 19.9924C103.618 19.9924 103.26 20.0797 102.945 20.2544C102.634 20.4249 102.387 20.6635 102.204 20.9704C102.025 21.2772 101.935 21.6309 101.935 22.0314V27.5861H99.2121ZM112.874 23.4057V17.7679H115.597V27.5861H112.982V25.8027H112.88C112.658 26.378 112.29 26.8404 111.774 27.1898C111.263 27.5392 110.638 27.714 109.901 27.714C109.245 27.714 108.668 27.5648 108.169 27.2665C107.67 26.9682 107.28 26.5442 106.999 25.9945C106.722 25.4448 106.582 24.7864 106.577 24.0194V17.7679H109.3V23.5336C109.305 24.1131 109.46 24.5712 109.767 24.9079C110.074 25.2445 110.485 25.4128 111.001 25.4128C111.329 25.4128 111.636 25.3383 111.921 25.1891C112.207 25.0357 112.437 24.8098 112.611 24.5115C112.79 24.2133 112.878 23.8446 112.874 23.4057ZM117.723 27.5861V25.9625L122.53 20.0115V19.9412H117.89V17.7679H125.809V19.5385L121.297 25.3425V25.4128H125.976V27.5861H117.723Z" fill="white"/>
<path d="M129.226 28.5861V23.4952H131.006C131.361 23.4952 131.653 23.5565 131.884 23.6791C132.114 23.8001 132.286 23.9633 132.398 24.1688C132.511 24.3726 132.567 24.5988 132.567 24.8474C132.567 25.0662 132.528 25.2468 132.45 25.3893C132.374 25.5318 132.273 25.6445 132.147 25.7274C132.023 25.8103 131.888 25.8716 131.742 25.9113V25.9611C131.898 25.971 132.054 26.0257 132.212 26.1251C132.369 26.2246 132.501 26.3671 132.607 26.5527C132.713 26.7383 132.766 26.9653 132.766 27.2338C132.766 27.489 132.708 27.7185 132.592 27.9224C132.476 28.1262 132.293 28.2878 132.043 28.4071C131.793 28.5264 131.467 28.5861 131.066 28.5861H129.226ZM129.843 28.0392H131.066C131.469 28.0392 131.754 27.9613 131.923 27.8055C132.094 27.6481 132.179 27.4575 132.179 27.2338C132.179 27.0614 132.136 26.9023 132.048 26.7565C131.96 26.609 131.835 26.4914 131.672 26.4035C131.51 26.314 131.318 26.2693 131.096 26.2693H129.843V28.0392ZM129.843 25.7324H130.986C131.172 25.7324 131.339 25.6959 131.488 25.623C131.639 25.5501 131.759 25.4473 131.846 25.3148C131.936 25.1822 131.981 25.0264 131.981 24.8474C131.981 24.6237 131.903 24.434 131.747 24.2782C131.591 24.1207 131.344 24.042 131.006 24.042H129.843V25.7324ZM135.3 28.6656C134.932 28.6656 134.615 28.5844 134.348 28.422C134.083 28.2579 133.879 28.0292 133.734 27.7359C133.592 27.4409 133.521 27.0979 133.521 26.7068C133.521 26.3157 133.592 25.971 133.734 25.6727C133.879 25.3728 134.079 25.1391 134.336 24.9717C134.594 24.8027 134.896 24.7182 135.241 24.7182C135.44 24.7182 135.636 24.7513 135.83 24.8176C136.024 24.8839 136.2 24.9916 136.359 25.1407C136.518 25.2882 136.645 25.4838 136.74 25.7274C136.834 25.971 136.881 26.271 136.881 26.6273V26.8758H133.938V26.3687H136.285C136.285 26.1533 136.242 25.9611 136.155 25.792C136.071 25.623 135.95 25.4896 135.793 25.3918C135.637 25.294 135.453 25.2452 135.241 25.2452C135.007 25.2452 134.805 25.3032 134.634 25.4192C134.465 25.5335 134.335 25.6827 134.244 25.8666C134.153 26.0505 134.107 26.2478 134.107 26.4582V26.7963C134.107 27.0846 134.157 27.3291 134.256 27.5296C134.357 27.7285 134.497 27.8801 134.676 27.9845C134.855 28.0872 135.063 28.1386 135.3 28.1386C135.455 28.1386 135.594 28.1171 135.718 28.074C135.844 28.0292 135.952 27.963 136.044 27.8751C136.135 27.7856 136.205 27.6746 136.255 27.542L136.822 27.7011C136.762 27.8934 136.662 28.0624 136.521 28.2082C136.38 28.3524 136.206 28.4651 135.999 28.5463C135.792 28.6258 135.559 28.6656 135.3 28.6656ZM139.434 24.7679V25.265H137.456V24.7679H139.434ZM138.032 23.8531H138.619V27.4923C138.619 27.658 138.643 27.7823 138.691 27.8652C138.741 27.9464 138.804 28.0011 138.88 28.0292C138.958 28.0558 139.04 28.069 139.126 28.069C139.191 28.069 139.244 28.0657 139.285 28.0591C139.327 28.0508 139.36 28.0442 139.385 28.0392L139.504 28.5662C139.464 28.5811 139.409 28.596 139.337 28.6109C139.266 28.6275 139.176 28.6358 139.066 28.6358C138.901 28.6358 138.738 28.6001 138.579 28.5289C138.422 28.4576 138.291 28.3491 138.186 28.2032C138.084 28.0574 138.032 27.8735 138.032 27.6514V23.8531ZM141.44 28.6755C141.198 28.6755 140.979 28.63 140.782 28.5388C140.584 28.446 140.428 28.3126 140.312 28.1386C140.196 27.963 140.138 27.7508 140.138 27.5023C140.138 27.2835 140.181 27.1062 140.267 26.9703C140.353 26.8327 140.468 26.725 140.613 26.6471C140.757 26.5693 140.916 26.5112 141.09 26.4731C141.265 26.4334 141.442 26.4019 141.619 26.3787C141.851 26.3488 142.039 26.3265 142.184 26.3116C142.329 26.295 142.435 26.2676 142.502 26.2295C142.57 26.1914 142.604 26.1251 142.604 26.0307V26.0108C142.604 25.7655 142.537 25.5749 142.402 25.439C142.27 25.3032 142.068 25.2352 141.798 25.2352C141.518 25.2352 141.299 25.2965 141.14 25.4192C140.98 25.5418 140.869 25.6727 140.804 25.8119L140.247 25.613C140.347 25.381 140.479 25.2004 140.645 25.0711C140.812 24.9402 140.995 24.8491 141.192 24.7977C141.391 24.7447 141.586 24.7182 141.778 24.7182C141.901 24.7182 142.042 24.7331 142.201 24.7629C142.362 24.7911 142.517 24.8499 142.666 24.9394C142.817 25.0289 142.942 25.1639 143.041 25.3446C143.141 25.5252 143.19 25.7672 143.19 26.0704V28.5861H142.604V28.069H142.574C142.534 28.1519 142.468 28.2405 142.375 28.335C142.282 28.4295 142.159 28.5098 142.005 28.5761C141.85 28.6424 141.662 28.6755 141.44 28.6755ZM141.53 28.1486C141.762 28.1486 141.957 28.103 142.116 28.0118C142.277 27.9207 142.398 27.803 142.479 27.6589C142.562 27.5147 142.604 27.363 142.604 27.204V26.667C142.579 26.6969 142.524 26.7242 142.44 26.7491C142.357 26.7723 142.261 26.793 142.151 26.8112C142.044 26.8278 141.938 26.8427 141.836 26.8559C141.734 26.8675 141.652 26.8775 141.589 26.8858C141.437 26.9057 141.294 26.938 141.162 26.9827C141.031 27.0258 140.925 27.0913 140.844 27.1791C140.764 27.2653 140.724 27.3829 140.724 27.5321C140.724 27.7359 140.8 27.89 140.951 27.9944C141.103 28.0972 141.296 28.1486 141.53 28.1486Z" fill="#777E90"/>
</svg>
